<mxfile compressed="false" host="app.diagrams.net" modified="2024-03-24T13:34:30.634Z" agent="Mozilla/5.0 (X11; Linux x86_64) AppleWebKit/537.36 (KHTML, like Gecko) Chrome/122.0.0.0 Safari/537.36" etag="3hzsVCTyTq5ThDMwvwSS" version="24.1.0" type="github">
  <diagram id="B3oRqTaJLOvQRfe40nun" name="Page-1">
    <mxGraphModel dx="1816" dy="535" grid="1" gridSize="10" guides="1" tooltips="1" connect="1" arrows="1" fold="1" page="1" pageScale="1" pageWidth="827" pageHeight="1169" math="0" shadow="0">
      <root>
        <mxCell id="0" />
        <mxCell id="1" parent="0" />
        <mxCell id="5mkOq1AOxVc8VsjbNNZK-18" style="edgeStyle=orthogonalEdgeStyle;rounded=0;orthogonalLoop=1;jettySize=auto;html=1;exitX=0.5;exitY=1;exitDx=0;exitDy=0;entryX=0.5;entryY=0;entryDx=0;entryDy=0;endArrow=none;endFill=0;" edge="1" parent="1" source="5mkOq1AOxVc8VsjbNNZK-1" target="5mkOq1AOxVc8VsjbNNZK-15">
          <mxGeometry relative="1" as="geometry" />
        </mxCell>
        <mxCell id="5mkOq1AOxVc8VsjbNNZK-19" style="edgeStyle=orthogonalEdgeStyle;rounded=0;orthogonalLoop=1;jettySize=auto;html=1;exitX=0.5;exitY=1;exitDx=0;exitDy=0;entryX=0.5;entryY=0;entryDx=0;entryDy=0;endArrow=none;endFill=0;" edge="1" parent="1" source="5mkOq1AOxVc8VsjbNNZK-1" target="5mkOq1AOxVc8VsjbNNZK-16">
          <mxGeometry relative="1" as="geometry" />
        </mxCell>
        <mxCell id="5mkOq1AOxVc8VsjbNNZK-21" style="edgeStyle=orthogonalEdgeStyle;rounded=0;orthogonalLoop=1;jettySize=auto;html=1;exitX=0.5;exitY=1;exitDx=0;exitDy=0;entryX=0.5;entryY=0;entryDx=0;entryDy=0;endArrow=none;endFill=0;" edge="1" parent="1" source="5mkOq1AOxVc8VsjbNNZK-1" target="5mkOq1AOxVc8VsjbNNZK-20">
          <mxGeometry relative="1" as="geometry" />
        </mxCell>
        <mxCell id="5mkOq1AOxVc8VsjbNNZK-1" value="Staff" style="rounded=0;whiteSpace=wrap;html=1;" vertex="1" parent="1">
          <mxGeometry x="-5" y="310" width="120" height="60" as="geometry" />
        </mxCell>
        <mxCell id="5mkOq1AOxVc8VsjbNNZK-2" value="Member" style="rounded=0;whiteSpace=wrap;html=1;" vertex="1" parent="1">
          <mxGeometry x="305" y="310" width="120" height="60" as="geometry" />
        </mxCell>
        <mxCell id="5mkOq1AOxVc8VsjbNNZK-3" value="Ticket" style="rounded=0;whiteSpace=wrap;html=1;" vertex="1" parent="1">
          <mxGeometry x="615" y="310" width="120" height="60" as="geometry" />
        </mxCell>
        <mxCell id="5mkOq1AOxVc8VsjbNNZK-4" value="Schedule" style="rounded=0;whiteSpace=wrap;html=1;" vertex="1" parent="1">
          <mxGeometry x="925" y="310" width="120" height="60" as="geometry" />
        </mxCell>
        <mxCell id="5mkOq1AOxVc8VsjbNNZK-6" style="edgeStyle=orthogonalEdgeStyle;rounded=0;orthogonalLoop=1;jettySize=auto;html=1;exitX=0.5;exitY=1;exitDx=0;exitDy=0;entryX=0.5;entryY=0;entryDx=0;entryDy=0;endArrow=none;endFill=0;" edge="1" parent="1" source="5mkOq1AOxVc8VsjbNNZK-5" target="5mkOq1AOxVc8VsjbNNZK-1">
          <mxGeometry relative="1" as="geometry" />
        </mxCell>
        <mxCell id="5mkOq1AOxVc8VsjbNNZK-7" style="edgeStyle=orthogonalEdgeStyle;rounded=0;orthogonalLoop=1;jettySize=auto;html=1;exitX=0.5;exitY=1;exitDx=0;exitDy=0;entryX=0.5;entryY=0;entryDx=0;entryDy=0;endArrow=none;endFill=0;" edge="1" parent="1" source="5mkOq1AOxVc8VsjbNNZK-5" target="5mkOq1AOxVc8VsjbNNZK-2">
          <mxGeometry relative="1" as="geometry" />
        </mxCell>
        <mxCell id="5mkOq1AOxVc8VsjbNNZK-8" style="edgeStyle=orthogonalEdgeStyle;rounded=0;orthogonalLoop=1;jettySize=auto;html=1;exitX=0.5;exitY=1;exitDx=0;exitDy=0;entryX=0.5;entryY=0;entryDx=0;entryDy=0;endArrow=none;endFill=0;" edge="1" parent="1" source="5mkOq1AOxVc8VsjbNNZK-5" target="5mkOq1AOxVc8VsjbNNZK-3">
          <mxGeometry relative="1" as="geometry" />
        </mxCell>
        <mxCell id="5mkOq1AOxVc8VsjbNNZK-9" style="edgeStyle=orthogonalEdgeStyle;rounded=0;orthogonalLoop=1;jettySize=auto;html=1;exitX=0.5;exitY=1;exitDx=0;exitDy=0;entryX=0.5;entryY=0;entryDx=0;entryDy=0;endArrow=none;endFill=0;" edge="1" parent="1" source="5mkOq1AOxVc8VsjbNNZK-5" target="5mkOq1AOxVc8VsjbNNZK-4">
          <mxGeometry relative="1" as="geometry" />
        </mxCell>
        <mxCell id="5mkOq1AOxVc8VsjbNNZK-5" value="Train Ticketing System" style="rounded=0;whiteSpace=wrap;html=1;" vertex="1" parent="1">
          <mxGeometry x="440" y="170" width="160" height="60" as="geometry" />
        </mxCell>
        <mxCell id="5mkOq1AOxVc8VsjbNNZK-15" value="Manage Account" style="rounded=0;whiteSpace=wrap;html=1;" vertex="1" parent="1">
          <mxGeometry x="-280" y="430" width="120" height="60" as="geometry" />
        </mxCell>
        <mxCell id="5mkOq1AOxVc8VsjbNNZK-16" value="Manage Schedule" style="rounded=0;whiteSpace=wrap;html=1;" vertex="1" parent="1">
          <mxGeometry x="-100" y="430" width="120" height="60" as="geometry" />
        </mxCell>
        <mxCell id="5mkOq1AOxVc8VsjbNNZK-20" value="View All Tickets" style="rounded=0;whiteSpace=wrap;html=1;" vertex="1" parent="1">
          <mxGeometry x="80" y="430" width="120" height="60" as="geometry" />
        </mxCell>
      </root>
    </mxGraphModel>
  </diagram>
</mxfile>
